<svg width="421" height="421" viewBox="0 0 421 421" fill="none" xmlns="http://www.w3.org/2000/svg">
<path d="M285.45 166.718C282.24 163.355 277.808 161.368 272.764 161.368H247.39V161.062C247.39 157.241 245.862 153.573 243.263 151.127C240.665 148.529 237.149 147 233.328 147H187.472C183.498 147 179.983 148.529 177.384 151.127C174.786 153.725 173.257 157.241 173.257 161.062V161.368H148.037C142.992 161.368 138.56 163.355 135.35 166.718C132.14 169.928 130 174.513 130 179.405V255.525C130 260.569 131.987 265.002 135.35 268.211C138.56 271.421 143.145 273.561 148.037 273.561H272.764C277.808 273.561 282.24 271.574 285.45 268.211C288.66 265.002 290.8 260.416 290.8 255.525V179.405C290.8 174.36 288.813 169.928 285.45 166.718ZM282.852 255.525H282.699C282.699 258.276 281.629 260.722 279.795 262.556C277.96 264.39 275.515 265.46 272.764 265.46H148.037C145.285 265.46 142.84 264.39 141.005 262.556C139.171 260.722 138.101 258.276 138.101 255.525V179.405C138.101 176.653 139.171 174.208 141.005 172.373C142.84 170.539 145.285 169.469 148.037 169.469H177.537C179.83 169.469 181.664 167.635 181.664 165.342V160.91C181.664 159.228 182.275 157.7 183.345 156.63C184.415 155.56 185.944 154.948 187.625 154.948H233.328C235.009 154.948 236.538 155.56 237.608 156.63C238.678 157.7 239.289 159.228 239.289 160.91V165.342C239.289 167.635 241.123 169.469 243.416 169.469H272.916C275.668 169.469 278.113 170.539 279.948 172.373C281.782 174.208 282.852 176.653 282.852 179.405V255.525Z" fill="#C5C5C5"/>
<path d="M210.4 179.863C200.006 179.863 190.529 184.143 183.804 190.868C176.925 197.747 172.798 207.071 172.798 217.465C172.798 227.859 177.078 237.335 183.804 244.061C190.682 250.939 200.006 255.066 210.4 255.066C220.794 255.066 230.271 250.786 236.996 244.061C243.875 237.182 248.002 227.859 248.002 217.465C248.002 207.071 243.722 197.594 236.996 190.868C230.271 184.143 220.794 179.863 210.4 179.863ZM231.188 238.405C225.838 243.602 218.501 246.965 210.4 246.965C202.299 246.965 194.962 243.602 189.612 238.405C184.262 233.056 181.052 225.719 181.052 217.617C181.052 209.516 184.415 202.179 189.612 196.83C194.962 191.48 202.299 188.27 210.4 188.27C218.501 188.27 225.838 191.633 231.188 196.83C236.538 202.179 239.748 209.516 239.748 217.617C239.9 225.719 236.538 233.056 231.188 238.405Z" fill="#C5C5C5"/>
<path d="M264.815 194.69C268.952 194.69 272.305 191.336 272.305 187.2C272.305 183.064 268.952 179.71 264.815 179.71C260.679 179.71 257.325 183.064 257.325 187.2C257.325 191.336 260.679 194.69 264.815 194.69Z" fill="#C5C5C5"/>
</svg>
