<svg width="37" height="37" viewBox="0 0 37 37" fill="none" xmlns="http://www.w3.org/2000/svg">
<g clip-path="url(#clip0)">
<path d="M34.8974 15.7636C34.3279 15.3437 33.6169 14.8192 33.5236 14.4718C33.4222 14.0905 33.7842 13.2556 34.077 12.5848C34.5789 11.4329 35.0969 10.2393 34.521 9.2467C33.9403 8.24129 32.6356 8.09327 31.376 7.95173C30.6569 7.87127 29.7625 7.77158 29.4954 7.5029C29.2267 7.23422 29.127 6.33981 29.0465 5.62231C28.905 4.3627 28.7586 3.05966 27.7516 2.47729C26.8765 1.96897 25.5798 2.41297 24.4135 2.92129C23.77 3.2012 23.0976 3.46822 22.5249 3.4747C22.1774 3.38143 21.6546 2.67033 21.2331 2.10085C20.5093 1.11641 19.6872 0 18.5 0C17.3143 0 16.4907 1.11641 15.7652 2.10093C15.3437 2.67199 14.8208 3.38308 14.3286 3.49084C13.8942 3.49084 13.2282 3.20128 12.5848 2.92136C11.4153 2.41304 10.1171 1.97387 9.24836 2.47736C8.23971 3.05974 8.09334 4.36278 7.95173 5.62397C7.87127 6.34306 7.77158 7.23588 7.50448 7.50456C7.23581 7.77158 6.3414 7.87293 5.6239 7.9518C4.3627 8.09334 3.058 8.24137 2.47729 9.24678C1.90299 10.2394 2.42096 11.4314 2.92129 12.5848C3.2141 13.2557 3.57764 14.0922 3.4747 14.4734C3.38143 14.8209 2.67199 15.3454 2.10085 15.7652C1.11641 16.4891 0 17.3127 0 18.5C0 19.6872 1.11641 20.5109 2.10259 21.2364C2.67207 21.6562 3.38308 22.1807 3.47644 22.5282C3.57779 22.9094 3.21583 23.7443 2.92302 24.4152C2.42111 25.567 1.90314 26.7606 2.47902 27.7532C3.05974 28.7586 4.36444 28.9067 5.62405 29.0482C6.34313 29.1287 7.23754 29.2283 7.50464 29.497C7.77331 29.7657 7.873 30.6601 7.95346 31.3776C8.095 32.6372 8.24144 33.9403 9.24844 34.5226C10.1187 35.0294 11.4153 34.587 12.5848 34.0786C13.2283 33.7987 13.8895 33.514 14.4734 33.5252C14.8209 33.6185 15.3437 34.3296 15.7652 34.8991C16.4907 35.8836 17.3128 37 18.5 37C19.6857 37 20.5093 35.8836 21.2348 34.8991C21.6563 34.328 22.1792 33.6169 22.6714 33.5076C23.1058 33.5076 23.7718 33.7971 24.4152 34.0771C25.588 34.5854 26.8829 35.0262 27.7516 34.5226C28.7603 33.9403 28.9067 32.6372 29.0483 31.376C29.1287 30.6569 29.2284 29.7641 29.4955 29.4954C29.7642 29.2268 30.6586 29.1271 31.3761 29.0466C32.6373 28.9051 33.942 28.7586 34.5227 27.7516C35.097 26.7591 34.579 25.567 34.0787 24.4136C33.7859 23.7427 33.4239 22.9063 33.5253 22.5266C33.6186 22.1791 34.328 21.6546 34.8991 21.2348C35.8837 20.5109 37.0001 19.6872 37.0001 18.5C37.0001 17.3127 35.8835 16.4891 34.8974 15.7636ZM14.4783 21.7174C14.4783 22.0633 14.2563 22.3705 13.9281 22.4799C13.8445 22.5089 13.7592 22.5217 13.6739 22.5217C13.4262 22.5217 13.1849 22.4059 13.0304 22.2L9.65217 17.6957V21.7174C9.65217 22.1614 9.29179 22.5217 8.84779 22.5217C8.4038 22.5217 8.04342 22.1614 8.04342 21.7174V15.2826C8.04342 14.9367 8.26542 14.6295 8.5936 14.5201C8.92019 14.4091 9.28373 14.5233 9.49125 14.8L12.8695 19.3043V15.2826C12.8695 14.8386 13.2299 14.4783 13.6739 14.4783C14.1179 14.4783 14.4783 14.8386 14.4783 15.2826V21.7174ZM20.1087 17.6957C20.5527 17.6957 20.9131 18.056 20.9131 18.5C20.9131 18.944 20.5527 19.3043 20.1087 19.3043H17.6957V20.913H20.1087C20.5527 20.913 20.9131 21.2734 20.9131 21.7174C20.9131 22.1614 20.5527 22.5217 20.1087 22.5217H16.8913C16.4473 22.5217 16.0869 22.1614 16.0869 21.7174V15.2826C16.0869 14.8386 16.4473 14.4783 16.8913 14.4783H20.1087C20.5527 14.4783 20.9131 14.8386 20.9131 15.2826C20.9131 15.7266 20.5527 16.087 20.1087 16.087H17.6957V17.6957H20.1087V17.6957ZM30.541 15.4773L28.9324 21.912C28.8455 22.2595 28.5399 22.5072 28.1827 22.5201C28.1715 22.5201 28.1602 22.5201 28.1505 22.5201C27.8047 22.5201 27.4974 22.2997 27.3864 21.9699L26.5435 19.4346L25.6989 21.9716C25.5863 22.3094 25.308 22.5362 24.9042 22.5202C24.547 22.5073 24.2414 22.258 24.1545 21.9121L22.5459 15.4773C22.4397 15.0462 22.7003 14.6102 23.1314 14.5025C23.5545 14.393 23.9985 14.6553 24.1063 15.088L25.0441 18.8427L25.7793 16.6372C25.9997 15.9808 27.0871 15.9808 27.3059 16.6372L28.0411 18.8427L28.9789 15.088C29.0851 14.6552 29.5194 14.3946 29.9538 14.5025C30.3883 14.6101 30.6489 15.0477 30.541 15.4773Z" fill="red"/>
</g>
<defs>
<clipPath id="clip0">
<rect width="37" height="37" fill="white"/>
</clipPath>
</defs>
</svg>
