<svg width="454" height="454" viewBox="0 0 454 454" fill="none" xmlns="http://www.w3.org/2000/svg">
<path d="M436 323.906C433.755 323.906 431.531 324.348 429.457 325.207C427.382 326.067 425.497 327.326 423.909 328.914C422.322 330.502 421.062 332.387 420.203 334.461C419.344 336.536 418.902 338.759 418.902 341.004V372.19L246.745 74.0118L274.138 26.5489C276.394 22.6226 277 17.9618 275.823 13.5892C274.647 9.21661 271.784 5.48933 267.862 3.22517C263.941 0.96102 259.281 0.344927 254.906 1.51207C250.531 2.67922 246.798 5.53427 244.525 9.4508L227 39.8155L209.466 9.4508C208.349 7.49448 206.856 5.77818 205.074 4.40052C203.291 3.02285 201.254 2.01096 199.079 1.42301C196.904 0.835049 194.635 0.682606 192.401 0.974434C190.167 1.26626 188.013 1.99661 186.063 3.12352C184.112 4.25042 182.403 5.75168 181.034 7.54102C179.666 9.33036 178.664 11.3725 178.087 13.5502C177.51 15.7278 177.369 17.998 177.672 20.2304C177.975 22.4627 178.716 24.6132 179.852 26.5582L207.254 74.0118L35.0981 372.19V341.004C35.0981 338.759 34.6558 336.536 33.7966 334.461C32.9373 332.387 31.6779 330.502 30.0902 328.914C28.5025 327.327 26.6176 326.067 24.5432 325.208C22.4687 324.349 20.2454 323.906 18 323.906C15.7546 323.906 13.5313 324.349 11.4568 325.208C9.38241 326.067 7.49752 327.327 5.90982 328.914C4.32211 330.502 3.06268 332.387 2.20342 334.461C1.34416 336.536 0.901901 338.759 0.901901 341.004V435.967C0.942059 437.998 1.34507 440.005 2.0919 441.893C2.2705 442.373 2.4467 442.823 2.6659 443.283C2.8642 443.7 2.9593 444.153 3.1936 444.558C3.9349 445.838 4.84012 447.015 5.8863 448.06C5.8979 448.074 5.9049 448.088 5.9163 448.1C7.32364 449.452 8.95367 450.551 10.7347 451.349C11.1812 451.56 11.6172 451.734 12.0834 451.908C13.968 452.658 15.9721 453.063 18 453.103H160.495V331.507C160.495 313.87 167.502 296.955 179.973 284.484C192.444 272.013 209.359 265.007 226.995 265.007C244.632 265.007 261.547 272.013 274.018 284.484C286.489 296.955 293.495 313.87 293.495 331.507V453.103H436C438.028 453.063 440.031 452.658 441.916 451.908C442.383 451.734 442.821 451.558 443.268 451.347C445.048 450.55 446.677 449.451 448.084 448.1C448.095 448.088 448.102 448.074 448.114 448.06C449.16 447.015 450.065 445.838 450.806 444.558C451.041 444.155 451.135 443.705 451.333 443.287C451.553 442.826 451.731 442.373 451.91 441.889C452.656 440.001 453.058 437.996 453.098 435.967V341.004C453.098 338.759 452.656 336.536 451.797 334.461C450.938 332.387 449.678 330.502 448.091 328.914C446.503 327.326 444.618 326.067 442.543 325.207C440.469 324.348 438.245 323.906 436 323.906V323.906Z" fill="#555555"/>
</svg>
